<svg width="63" height="63" viewBox="0 0 63 63" xmlns="http://www.w3.org/2000/svg">
    <g fill="none" fill-rule="evenodd">
        <rect width="63" height="63" rx="8" fill="#FFF"/>
        <path d="M51.396 39.296a1.99 1.99 0 0 1-1.543-.615 1.868 1.868 0 0 1-.455-1.03 2.155 2.155 0 0 0 1.666-2.106c0-1.007-.691-1.88-1.666-2.104v-5.742c.002-.519-.266-1-.707-1.268l-16.095-9.898a3.56 3.56 0 0 0-3.75 0l-16.142 9.898c-.438.27-.704.749-.704 1.265 0 .517.266.996.704 1.266l5.538 3.4v8.817a3.164 3.164 0 0 0 1.333 2.58 19.334 19.334 0 0 0 11.136 3.67h.053a19.377 19.377 0 0 0 11.087-3.67 3.175 3.175 0 0 0 1.329-2.58v-8.812l5.174-3.179v4.22a2.155 2.155 0 0 0-1.716 2.116c0 1.026.717 1.911 1.716 2.115.042.655.3 1.276.733 1.765a3.01 3.01 0 0 0 2.24.971h.176a.537.537 0 0 0 .444-.305.545.545 0 0 0-.04-.54.536.536 0 0 0-.484-.234h-.027zM13.073 27.699a.395.395 0 0 1 .188-.345l16.127-9.903a2.517 2.517 0 0 1 2.678 0l15.806 9.714H31.948a1.342 1.342 0 0 0-2.577.54 1.342 1.342 0 0 0 2.577.54l15.897-.001-15.806 9.714a2.523 2.523 0 0 1-2.678 0l-16.122-9.92a.39.39 0 0 1-.166-.34zm6.24 13.491v-8.17l2.201 1.349v9.363a19.668 19.668 0 0 1-1.323-.858 2.071 2.071 0 0 1-.878-1.695v.011zm22.795 0c0 .676-.328 1.308-.878 1.695a18.226 18.226 0 0 1-10.466 3.475h-.053a17.702 17.702 0 0 1-8.125-2.018v-9.315l6.245 3.837a3.587 3.587 0 0 0 3.749 0l9.528-5.839v8.165zm5.651-5.66c0-.597.48-1.08 1.071-1.08.592 0 1.072.483 1.072 1.08 0 .595-.48 1.079-1.072 1.079a1.102 1.102 0 0 1-1.07-1.08z" fill="#866DE0" fill-rule="nonzero"/>
    </g>
</svg>
