<svg width="34" height="76" viewBox="0 0 34 76" xmlns="http://www.w3.org/2000/svg">
    <g fill-rule="nonzero" fill="none">
        <path d="M16.4 20.4a6 6 0 1 0 5.9 5.9 5.9 5.9 0 0 0-5.9-5.9zm0 9.9a4 4 0 1 1 3.9-4 3.9 3.9 0 0 1-3.9 4z" fill="#36CFFE"/>
        <path d="m33.1 43-4.5-4.4a49.3 49.3 0 0 0 .3-5.5A51.8 51.8 0 0 0 17.5.4a1 1 0 0 0-1.6 0A51.8 51.8 0 0 0 4.5 33.1a49.3 49.3 0 0 0 .3 5.5L.3 43a1.1 1.1 0 0 0-.3.7v19.2a1 1 0 0 0 .7.9H1a.8.8 0 0 0 .7-.3l7.9-7.8c.5.9.9 1.9 1.5 2.8a.9.9 0 0 0 .8.5h9.6a.9.9 0 0 0 .8-.5c.6-1 1-1.9 1.5-2.8l7.9 7.9a.8.8 0 0 0 .7.3h.3a1 1 0 0 0 .7-.9V43.7a1.1 1.1 0 0 0-.3-.7zM17.8 4.2l.7 1 .3.5.9 1.3v.2a59.1 59.1 0 0 1 3.9 8H9.7a53.9 53.9 0 0 1 3.9-8V7l.9-1.3.3-.5.7-1 .9-1.2.2-.3.2.3 1 1.2zM8.7 53.8 2 60.5V44.2l3.1-3.1a3 3 0 0 0 .2 1l.3 1.5a10.6 10.6 0 0 0 .4 1.9l.3 1.3c.213.62.38 1.255.5 1.9.2.4.3.9.5 1.3l.6 1.7.6 1.5c.1.2.1.4.2.6zm12.2 3.3h-8.4a56.2 56.2 0 0 1-2.5-5.6l-.2-.3-.9-2.7c-.3-1-.6-1.9-.8-2.8a.8.8 0 0 1-.1-.4 14 14 0 0 1-.6-2.8c-.1-.1-.1-.1-.1-.2s-.3-1.7-.4-2.6a1.3 1.3 0 0 0-.1-.6 58.8 58.8 0 0 1-.3-6A49.9 49.9 0 0 1 9 17.2h15.4a49.9 49.9 0 0 1 2.5 15.9c0 2-.1 4.1-.3 6.1a.7.7 0 0 0-.1.5c-.1.9-.3 1.8-.4 2.7a28.6 28.6 0 0 1-.7 2.8.4.4 0 0 1-.1.3 36.2 36.2 0 0 1-1.7 5.6l-.2.3a56.2 56.2 0 0 1-2.5 5.7zm10.5 3.4-6.7-6.7c.1-.2.1-.4.2-.6l.6-1.5.6-1.7c.2-.4.3-.9.5-1.3a13.3 13.3 0 0 1 .5-1.9l.3-1.3a10.6 10.6 0 0 0 .4-1.9l.3-1.5a3 3 0 0 0 .2-1l3.1 3.1v16.3z" fill="#FFF"/>
        <path d="M14.3 62.2a1 1 0 0 0-1 1v11.6a1.1 1.1 0 0 0 1 1 1 1 0 0 0 1-1V63.2a.9.9 0 0 0-1-1zM19.1 62.2a.9.9 0 0 0-1 1v11.6a1 1 0 0 0 1 1 1.1 1.1 0 0 0 1-1V63.2a1 1 0 0 0-1-1z" fill="#FFF"/>
    </g>
</svg>
