<svg width="63" height="63" viewBox="0 0 63 63" xmlns="http://www.w3.org/2000/svg">
    <g fill="none" fill-rule="evenodd">
        <rect fill="#FFF" width="63" height="63" rx="8"/>
        <path d="M52.5 15.61v27.137c0 .887-.723 1.61-1.61 1.61h-7.787a.723.723 0 0 1 0-1.446h7.788a.162.162 0 0 0 .164-.164V15.61a.162.162 0 0 0-.164-.164H14.109a.162.162 0 0 0-.163.164v20.318a.723.723 0 0 1-1.446 0V15.61c0-.887.723-1.61 1.61-1.61h36.775c.893 0 1.616.723 1.616 1.61zM17.32 29.18a5.55 5.55 0 0 1 5.542-5.541 5.55 5.55 0 0 1 5.543 5.542c0 3.006-2.42 6.506-5.543 6.506s-5.542-3.5-5.542-6.506zm1.446 0c0 2.28 1.89 5.061 4.096 5.061 2.207 0 4.097-2.78 4.097-5.06a4.098 4.098 0 0 0-4.097-4.097 4.098 4.098 0 0 0-4.096 4.097zm-.723 15.664c-.4 0-.723.324-.723.723v3.855a.723.723 0 0 0 1.446 0v-3.855c0-.4-.324-.723-.723-.723zm20.377-6.685 5.339-11.567a.72.72 0 1 0-1.31-.606l-5.592 12.11h-18.84a5.527 5.527 0 0 0-5.517 5.519v5.807a.723.723 0 0 0 1.446 0v-5.807a4.076 4.076 0 0 1 4.072-4.072h19.778c.93 0 1.687.756 1.687 1.686 0 .93-.757 1.687-1.687 1.687H27.68c-.399 0-.723.324-.723.723v5.783a.723.723 0 0 0 1.446 0v-5.06h9.398a3.14 3.14 0 0 0 3.133-3.133 3.137 3.137 0 0 0-2.516-3.07zm7.575-19.34H19.006a.723.723 0 0 0 0 1.446h26.988a.723.723 0 0 0 0-1.446zm-6.988 7.47c0-.399-.324-.723-.723-.723h-6.747a.723.723 0 0 0 0 1.446h6.747c.4 0 .723-.324.723-.723zm-8.434 6.025a.723.723 0 0 0 0 1.445h4.82a.723.723 0 0 0 0-1.445h-4.82zm13.735.722c0 .4.324.723.723.723h1.928a.723.723 0 0 0 0-1.445H45.03c-.399 0-.723.323-.723.722z" fill="#866DE0" fill-rule="nonzero"/>
    </g>
</svg>
