<svg width="36" height="42" viewBox="0 0 36 42" xmlns="http://www.w3.org/2000/svg" xmlns:xlink="http://www.w3.org/1999/xlink">
    <defs>
        <path id="e7c9epq47a" d="M0 0h36v12H0z"/>
        <path id="q1isz6v6xc" d="M0 0h35v9H0z"/>
    </defs>
    <g fill="none" fill-rule="evenodd">
        <path d="M24.667 17.827c.925 3.61-.901 8.353-4.12 10.33-3.549 2.18-6.929-.854-8.396-4.009-.975-2.096-1.412-4.617-.628-6.838l-.531.402c2.36-.257 4.46-1.226 6.236-2.783h-.778a12.57 12.57 0 0 0 8.748 3.3c.708-.012.71-1.107 0-1.095-2.966.051-5.781-.983-7.97-2.98a.568.568 0 0 0-.778 0c-1.54 1.35-3.408 2.24-5.458 2.463-.26.029-.444.153-.531.402-1.452 4.115.676 9.612 4.295 11.98 1.656 1.084 3.68 1.327 5.51.535 1.95-.843 3.421-2.595 4.367-4.445 1.172-2.294 1.744-5.023 1.096-7.553-.175-.682-1.238-.393-1.062.29M29.998 28.48c.02-2.778-.116-5.562-.481-8.322-.317-2.398-.87-4.826-2.352-6.904-.42-.588-1.49-.048-1.068.544 1.461 2.05 1.962 4.477 2.243 6.844.308 2.604.44 5.22.42 7.837-.004.694 1.233.695 1.238 0M7.24 28.48c-.02-2.618.112-5.234.42-7.838.28-2.367.782-4.794 2.244-6.844.42-.591-.65-1.133-1.069-.544-1.481 2.078-2.035 4.506-2.352 6.904-.365 2.76-.501 5.545-.481 8.321.005.694 1.243.695 1.237 0" fill="#FFF"/>
        <g transform="translate(0 30)">
            <mask id="0h3gxlp27b" fill="#fff">
                <use xlink:href="#e7c9epq47a"/>
            </mask>
            <path d="m1.102 11.46.277-4.728.067-1.14c.006-.106-.005-.229.02-.333.021-.093.066-.114.037-.042.53-1.299 1.959-1.687 3.156-1.989 1.391-.351 2.794-.652 4.192-.971a6.262 6.262 0 0 0 1.062-.32c.818-.347 1.292-1.093 2.183-.563.453.269.896.556 1.344.834l4.433 2.752a.538.538 0 0 0 .556 0l3.745-2.426c.562-.364 1.119-.737 1.685-1.092.58-.363.89-.299 1.441.069.498.332 1.04.554 1.618.693 1.33.32 2.673.59 4.002.918 1.036.255 2.103.443 2.907 1.219.743.717.706.885.764 1.874l.307 5.245c.042.718 1.143.722 1.1 0l-.292-4.995c-.042-.72.015-1.388-.374-2.013-.706-1.134-1.791-1.817-3.048-2.142-1.544-.4-3.101-.738-4.655-1.092-.334-.077-.679-.14-1-.262-.8-.305-1.329-.99-2.241-.931-.658.042-1.254.557-1.798.91l-4.717 3.056h.556l-4.205-2.61c-.524-.326-1.05-.65-1.572-.976-.492-.307-1-.499-1.586-.358-.798.193-1.385.852-2.209 1.06-1.403.354-2.827.619-4.23.973-1.149.29-2.241.554-3.152 1.39C1.014 3.891.487 4.51.37 5.138c-.037.204-.025.432-.037.637-.11 1.895-.222 3.79-.333 5.684-.042.721 1.06.719 1.101 0" fill="#FFF" mask="url(#0h3gxlp27b)"/>
        </g>
        <path d="m23.933 30.985-1.682-3.64c-.36-.778-1.542-.104-1.184.67l1.682 3.64c.36.778 1.542.104 1.184-.67M12.25 31.655l1.683-3.64c.358-.773-.823-1.448-1.184-.67l-1.682 3.64c-.358.773.823 1.448 1.184.67M25.6 12.954c-2.48-.885-4.917-1.634-7.6-1.636-2.682-.002-5.122.752-7.6 1.636l.688.505V9.142l-.4.505C13.076 8.795 15.414 8.05 18 8.05c2.586 0 4.924.746 7.312 1.598l-.4-.505v4.317c0 .675 1.088.676 1.088 0V9.142c0-.247-.172-.425-.4-.506C23.12 7.751 20.684 7.002 18 7c-2.682-.002-5.122.752-7.6 1.636-.228.081-.4.26-.4.506v4.317c0 .317.351.626.688.506 2.388-.852 4.726-1.599 7.312-1.599 2.586 0 4.924.747 7.312 1.599.657.234.94-.778.289-1.011" fill="#FFF"/>
        <g>
            <mask id="cghscqfp6d" fill="#fff">
                <use xlink:href="#q1isz6v6xc"/>
            </mask>
            <path d="M8.931 7.903 3.667 6.844c-.753-.152-1.668-.194-2.385-.48-.113-.045-.178.02-.125-.049.063-.084.412-.131.509-.162l11.923-3.795 2.562-.815c.392-.125.897-.395 1.31-.418.197-.01.398.09.589.15l1.996.636c4.182 1.33 8.364 2.662 12.545 3.993.137.043 1.302.289 1.337.425-.004-.015-1.638.33-1.759.355l-6.06 1.22c-.692.138-.4 1.223.291 1.084l5.805-1.168c.665-.134 1.408-.193 2.05-.424 1.113-.4.895-1.807-.101-2.172-1.488-.546-3.033-.966-4.542-1.446L22.19 1.416C20.76.96 19.32.393 17.863.039c-.434-.106-.763.024-1.164.152l-2.271.723L1.433 5.05c-.5.159-1.08.267-1.316.816-.455 1.056.508 1.51 1.308 1.67l6.652 1.338.563.114c.69.138.984-.945.291-1.085" fill="#FFF" mask="url(#cghscqfp6d)"/>
        </g>
        <path d="M1 6.517v7.966c0 .689 1 .69 1 0V6.517c0-.689-1-.69-1 0" fill="#FFF"/>
        <path d="M1.9 15.5c-.028.516-.8.52-.8 0 0-.519.772-.514.8 0 .038.705 1.137.71 1.099 0-.044-.812-.653-1.5-1.5-1.5-.818 0-1.493.687-1.499 1.5-.006.8.659 1.468 1.448 1.499.867.034 1.506-.667 1.551-1.498.038-.707-1.061-.705-1.099 0" fill="#FFF"/>
    </g>
</svg>
