<svg width="43" height="36" viewBox="0 0 43 36" xmlns="http://www.w3.org/2000/svg" xmlns:xlink="http://www.w3.org/1999/xlink">
    <defs>
        <path id="lx3koit5za" d="M0 0h43v30H0z"/>
    </defs>
    <g fill="none" fill-rule="evenodd">
        <path d="m25.402 12.048-4.536-2.383c-.557-.292-1.244-.803-1.929-.63-.912.23-.895 1.026-.895 1.71 0 1.692-.095 3.409 0 5.099.052.904.958 1.43 1.87 1.008.687-.318 1.344-.706 2.01-1.056 1.012-.53 2.023-1.062 3.034-1.593.234-.123.512-.239.704-.416.52-.48.421-1.261-.147-1.661-.551-.388-1.334.313-.776.706.339.238.062.286-.133.403-.272.163-.57.299-.851.447l-2.256 1.185c-.64.336-1.27.713-1.93 1.014-.426.194-.427.025-.427-.362v-4.48c0-.25-.15-1.031.208-1.018.122.004.359.188.46.241l.947.498 4.093 2.15c.613.322 1.166-.54.554-.862" fill="#FFF"/>
        <path d="M28.92 12.503c-.04 3.12-1.995 5.99-4.978 7.016a7.512 7.512 0 0 1-8.164-2.264c-2.008-2.397-2.26-5.913-.65-8.585 1.6-2.66 4.803-4.082 7.85-3.448 3.452.718 5.898 3.778 5.943 7.28.009.695 1.088.696 1.079 0-.046-3.553-2.24-6.744-5.584-7.99-3.324-1.237-7.207-.175-9.463 2.55-2.277 2.752-2.607 6.749-.758 9.818 1.827 3.033 5.398 4.613 8.872 3.983 4.01-.728 6.881-4.336 6.933-8.36.009-.695-1.07-.695-1.08 0" fill="#FFF"/>
        <g>
            <mask id="8ykd1dcy2b" fill="#fff">
                <use xlink:href="#lx3koit5za"/>
            </mask>
            <path d="M6.8.003H3.155C1.335.003.075 1.218.02 3.05c-.042 1.409 0 2.825 0 4.233v17.303c0 1.795-.325 4.16 1.65 5.11.988.474 2.465.252 3.523.252h32.722c1.18 0 2.757.236 3.766-.488 1.602-1.149 1.254-3.395 1.254-5.107V6.999c0-1.447.171-3.01-.042-4.449-.226-1.53-1.41-2.536-2.946-2.547-1.063-.007-2.126 0-3.19 0H6.8c-.688 0-.69 1.058 0 1.058h32.45c1.12 0 2.182.054 2.537 1.394.127.482.078 1.03.078 1.526V26.2c0 .774.026 1.556-.552 2.177-.462.498-.994.513-1.597.513H3.729c-.318 0-.64.018-.957 0-1.201-.067-1.676-1.168-1.682-2.217-.032-4.796 0-9.593 0-14.39v-7.52c0-.543-.008-1.085 0-1.628.007-.568.15-1.135.551-1.562.489-.518 1.07-.512 1.717-.512H6.8c.689 0 .69-1.058 0-1.058" fill="#FFF" mask="url(#8ykd1dcy2b)"/>
        </g>
        <path d="M12.502 36h17.996c.669 0 .67-1 0-1H12.502c-.669 0-.67 1 0 1" fill="#FFF"/>
        <path d="m25.024 29.653 1.84 5.975c.201.653 1.314.375 1.112-.28l-1.84-5.976c-.201-.653-1.314-.375-1.112.281M16.864 29.372l-1.84 5.975c-.201.655.91.935 1.112.28l1.84-5.974c.201-.655-.91-.935-1.112-.28M.506 26h40.988c.674 0 .675-1 0-1H.506c-.674 0-.675 1 0 1" fill="#FFF"/>
    </g>
</svg>
