<svg width="40" height="40" viewBox="0 0 40 40" xmlns="http://www.w3.org/2000/svg" xmlns:xlink="http://www.w3.org/1999/xlink">
    <defs>
        <path id="zblg3ihy0a" d="M0 0h40v39.152H0z"/>
    </defs>
    <g fill="none" fill-rule="evenodd">
        <g>
            <mask id="10dydswyfb" fill="#fff">
                <use xlink:href="#zblg3ihy0a"/>
            </mask>
            <path d="M29.297 0H10.703C4.792 0 0 4.7 0 10.497v18.158c0 5.798 4.792 10.497 10.703 10.497h18.594c5.911 0 10.703-4.7 10.703-10.497V10.497C40 4.7 35.208 0 29.297 0" fill="#866DE0" mask="url(#10dydswyfb)"/>
        </g>
        <path d="M24.285 10.612c.854-.028 1.709-.006 2.565-.008h.353v-4.36c-.457-.045-.935-.11-1.412-.132-.877-.038-1.755-.081-2.633-.061-1.34.027-2.607.348-3.715 1.126-1.27.896-1.968 2.154-2.233 3.64-.11.614-.138 1.249-.155 1.872-.024.979-.005 1.957-.003 2.936v.367h-4.255v4.87h4.23v12.245h5.17V20.882h4.215c.216-1.619.427-3.223.649-4.893h-.948c-1.199.004-3.951 0-3.951 0s.012-2.415.041-3.462c.042-1.435.91-1.873 2.082-1.915" fill="#FFF"/>
    </g>
</svg>
