<svg width="35" height="37" viewBox="0 0 35 37" xmlns="http://www.w3.org/2000/svg" xmlns:xlink="http://www.w3.org/1999/xlink">
    <defs>
        <path id="pbzk9tjgta" d="M0 0h24v28H0z"/>
        <path id="j1r960nb6c" d="M0 0h8v13H0z"/>
    </defs>
    <g fill="none" fill-rule="evenodd">
        <path d="M9.449 37H24.55c.598 0 .6-1 0-1H9.45c-.598 0-.6 1 0 1" fill="#FFF"/>
        <path d="M17 28.431v8.138c0 .574 1 .575 1 0V28.43c0-.574-1-.575-1 0" fill="#FFF"/>
        <g transform="translate(5)">
            <mask id="nkhisu18db" fill="#fff">
                <use xlink:href="#pbzk9tjgta"/>
            </mask>
            <path d="M23.085.346a72.914 72.914 0 0 0-2.103 16.174c-.032 2.004.225 4.039-.447 5.969a6.238 6.238 0 0 1-2.818 3.376c-1.51.862-3.282 1.151-4.995 1.185-1.829.035-3.675-.037-5.406-.695-1.413-.537-2.64-1.5-3.388-2.837-.872-1.558-.97-3.31-.906-5.057.109-2.96-.123-5.978-.458-8.917-.354-3.1-.908-6.17-1.65-9.198l-.45.597H23.535c.6 0 .6-.943 0-.943H.464c-.31 0-.522.3-.45.597a71.89 71.89 0 0 1 2.079 17.38c-.007 1.922-.04 3.74.78 5.528.658 1.43 1.8 2.584 3.18 3.307 1.603.84 3.433 1.146 5.224 1.18 1.88.037 3.8-.041 5.584-.702 1.482-.549 2.79-1.464 3.696-2.782.961-1.399 1.345-3.122 1.383-4.803.034-1.467-.043-2.933.005-4.403.053-1.594.158-3.186.317-4.773A71.686 71.686 0 0 1 23.984.597c.145-.59-.754-.84-.899-.25" fill="#FFF" mask="url(#nkhisu18db)"/>
        </g>
        <g transform="translate(27 7)">
            <mask id="msl3mbwosd" fill="#fff">
                <use xlink:href="#j1r960nb6c"/>
            </mask>
            <path d="M1.07.972c1.654 0 3.345-.115 4.994 0 1.348.094 1.061 2.002 1.004 3.002A9.033 9.033 0 0 1 5.193 8.97a8.623 8.623 0 0 1-4.865 3.097c-.575.134-.331 1.053.244.919 3.779-.88 6.76-4.13 7.323-8.138C7.998 4.115 8 3.384 8 2.644c0-.691.005-1.356-.456-1.918C6.798-.182 5.578.02 4.554.02H1.07c-.59 0-.59.953 0 .953" fill="#FFF" mask="url(#msl3mbwosd)"/>
        </g>
        <path d="M7.674 19.07c-3.403-.788-6.063-3.655-6.616-7.27C.957 11.135.96 10.467.96 9.797c0-.65-.085-1.425.627-1.726.275-.116.639-.071.93-.071h4.421c.585 0 .586-.95 0-.95H4.013c-.918 0-2.241-.23-3.066.3-1.177.753-.963 2.592-.868 3.833a10.098 10.098 0 0 0 2.01 5.334 9.383 9.383 0 0 0 5.343 3.47c.57.132.814-.784.242-.917M17.602 7.023l.945 1.861c.276.544.54 1.442 1.053 1.836.514.395 1.493.359 2.106.445l1.371.194c.173.024.661.008.8.113.279.209-.023.348-.176.494l-.992.94c-.488.463-1.03.905-1.48 1.404-.527.583-.219 1.398-.098 2.081l.24 1.363c.056.315.237.78.194 1.1-.038.287-.154.172-.368.098-.39-.134-.767-.392-1.133-.579-.676-.346-1.346-.737-2.042-1.044-.724-.318-1.306.116-1.93.436l-1.305.666c-.338.173-.712.444-1.077.551-.252.074-.284.08-.3-.183-.023-.362.143-.81.205-1.167.136-.767.304-1.535.407-2.307.1-.748-.376-1.101-.869-1.568l-1.948-1.847c-.194-.184-.364-.287-.034-.45.299-.147.86-.121 1.185-.167.838-.119 1.73-.163 2.552-.36.803-.194 1.099-1.238 1.424-1.878l.718-1.415c.022-.044.36-.9.552-.617.34.498 1.17.032.828-.47-.337-.495-.969-.736-1.526-.39-.277.17-.399.447-.537.72l-1.32 2.603c-.112.218-.168.451-.411.55-.268.107-.667.093-.952.134-.918.13-1.859.212-2.768.39-.995.197-1.19 1.207-.531 1.875.66.668 1.368 1.297 2.05 1.943.166.158.519.38.62.587.105.22-.044.601-.086.843-.163.924-.334 1.846-.49 2.771-.161.964.595 1.726 1.586 1.274.818-.373 1.607-.821 2.406-1.23.256-.13.654-.448.943-.482.215-.025.448.16.64.257l2.626 1.343c.332.17.654.325 1.044.23.599-.146.86-.685.787-1.245-.107-.824-.29-1.646-.435-2.464-.058-.33-.234-.79-.198-1.124.023-.219.189-.32.361-.484l2.14-2.029c.23-.218.49-.428.581-.742.163-.556-.189-1.128-.746-1.289-.749-.216-1.61-.237-2.382-.346-.53-.075-1.44-.002-1.762-.465-.523-.753-.866-1.705-1.28-2.52l-.36-.71c-.273-.539-1.1-.067-.828.47" fill="#FFF"/>
    </g>
</svg>
