<svg width="40" height="40" viewBox="0 0 40 40" xmlns="http://www.w3.org/2000/svg" xmlns:xlink="http://www.w3.org/1999/xlink">
    <defs>
        <path id="ntuxh1sxpa" d="M0 0h40v39.152H0z"/>
    </defs>
    <g fill="none" fill-rule="evenodd">
        <g>
            <mask id="nxmqg28k0b" fill="#fff">
                <use xlink:href="#ntuxh1sxpa"/>
            </mask>
            <path d="M29.297 0H10.703C4.793 0 0 4.7 0 10.497v18.158c0 5.798 4.792 10.497 10.703 10.497h18.594c5.911 0 10.703-4.7 10.703-10.497V10.497C40 4.7 35.208 0 29.297 0" fill="#866DE0" mask="url(#nxmqg28k0b)"/>
        </g>
        <path d="M28.54 12.753c-.003.85-.707 1.538-1.575 1.536-.867-.002-1.568-.693-1.566-1.543.002-.85.707-1.538 1.574-1.536.867.002 1.568.693 1.566 1.543m-8.583 11.074c-2.395-.021-4.319-1.943-4.297-4.291.021-2.349 1.98-4.236 4.375-4.215 2.395.021 4.319 1.942 4.297 4.291-.021 2.349-1.98 4.236-4.375 4.215m.046-10.825c-3.703-.002-6.707 2.94-6.709 6.573-.002 3.632 2.999 6.578 6.702 6.58 3.703.002 6.707-2.941 6.71-6.573.001-3.632-3-6.578-6.703-6.58m10.455 13.003c-.35 2.24-1.866 3.628-4.163 3.874-2.11.227-11.53.352-13.487-.185-1.87-.513-2.941-1.775-3.252-3.623-.297-1.765-.37-10.583-.004-12.943.345-2.221 1.86-3.607 4.144-3.857 2.316-.255 10.653-.283 12.873.05 2.279.344 3.692 1.834 3.942 4.09.234 2.105.3 10.332-.053 12.594m2.407-12.816c-.176-1.687-.836-3.18-2.115-4.377-1.345-1.26-2.991-1.816-4.795-1.91-3.074-.164-10.372-.268-12.935.142-2.928.468-4.848 2.144-5.658 4.981-.623 2.182-.499 12.24-.135 14.397.496 2.95 2.273 4.841 5.254 5.594 2.062.523 12.2.456 14.476.094 3.01-.477 4.946-2.21 5.728-5.129.598-2.24.389-11.771.18-13.792" fill="#FFF"/>
    </g>
</svg>
