<svg width="64" height="64" viewBox="0 0 64 64" xmlns="http://www.w3.org/2000/svg">
    <g fill="none" fill-rule="evenodd">
        <rect fill="#FFF" width="64" height="64" rx="8"/>
        <path d="M48.267 22.5h-4.058l-14.544-5.453a.736.736 0 0 0-.516 0l-14.67 5.5a.733.733 0 0 0 0 1.375l5.024 1.886v6.467c0 1.043.583 2.502 3.349 3.512 1.33.487 2.996.801 4.815.927v14.552c0 .407.327.734.733.734h12.17a.838.838 0 0 0 .142-.013c.016 0 .033-.008.05-.016l.089-.025c.016-.008.033-.021.054-.03.025-.013.05-.024.072-.037a.565.565 0 0 0 .113-.092l7.696-7.695a.651.651 0 0 0 .112-.156c.009-.013.017-.029.025-.042a.582.582 0 0 0 .062-.177.782.782 0 0 0 .013-.137L49 23.23a.732.732 0 0 0-.734-.733v.003zm-.734 20.334h-6.962a.732.732 0 0 0-.733.734v6.962H29.136V36.765c.092 0 .18.005.272.005 4.93 0 9.901-1.392 9.901-4.498v-6.467l2.2-.826v4.98a2.296 2.296 0 0 0-.918 3.772c-.473.591-.642 1.392-.645 1.929v2.737c0 .406.327.734.733.734h3.131a.732.732 0 0 0 .734-.734v-2.746c-.005-.532-.172-1.332-.645-1.918.397-.415.645-.976.645-1.594 0-1.01-.659-1.87-1.564-2.176v-5.529l1.233-.461h3.324v18.866l-.004-.005zm-6.228 6.661v-5.194h5.194l-5.194 5.194zM20.97 26.353l8.18 3.069a.78.78 0 0 0 .254.046.757.757 0 0 0 .256-.046l8.179-3.069v2.15c0 1.701-3.706 3.03-8.434 3.03-4.73 0-8.434-1.332-8.434-3.03v-2.15zm8.434-7.837 12.584 4.72-12.584 4.72-12.583-4.72 12.583-4.72zm13.669 17.142v2.004h-1.664v-1.996c0-.05.025-1.233.83-1.233.806 0 .83 1.11.83 1.225h.004zm-.833-2.695a.832.832 0 0 1-.83-.83c0-.457.373-.83.83-.83.456 0 .83.373.83.83 0 .457-.374.83-.83.83zm-21.27-1.91c.473.343 1.08.674 1.881.964 1.744.637 4.071.985 6.557.985 3.29 0 6.597-.62 8.434-1.958v1.225c0 1.701-3.706 3.03-8.434 3.03-4.729 0-8.434-1.332-8.434-3.03v-1.215l-.004-.002z" fill="#866DE0" fill-rule="nonzero"/>
    </g>
</svg>
