<svg width="40" height="40" viewBox="0 0 40 40" xmlns="http://www.w3.org/2000/svg" xmlns:xlink="http://www.w3.org/1999/xlink">
    <defs>
        <path id="rkwpxwe5ca" d="M0 0h40v39.152H0z"/>
    </defs>
    <g fill="none" fill-rule="evenodd">
        <g>
            <mask id="qkf0nl5qzb" fill="#fff">
                <use xlink:href="#rkwpxwe5ca"/>
            </mask>
            <path d="M29.297 0H10.703C4.793 0 0 4.7 0 10.497v18.158c0 5.798 4.792 10.497 10.703 10.497h18.594c5.911 0 10.703-4.7 10.703-10.497V10.497C40 4.7 35.208 0 29.297 0" fill="#866DE0" mask="url(#qkf0nl5qzb)"/>
        </g>
        <path d="M11.344 6.802c1.512 0 2.738 1.203 2.738 2.684 0 1.482-1.226 2.687-2.738 2.687-1.516 0-2.742-1.205-2.742-2.687 0-1.48 1.226-2.684 2.742-2.684zM8.978 29.107h4.73v-14.9h-4.73v14.9zM16.671 14.206h4.53v2.039h.062c.632-1.173 2.172-2.407 4.472-2.407 4.781 0 5.663 3.084 5.663 7.097v8.172h-4.72v-7.244c0-1.73-.034-3.952-2.454-3.952-2.458 0-2.833 1.882-2.833 3.825v7.37h-4.72v-14.9z" fill="#FFF"/>
    </g>
</svg>
