<svg width="16" height="20" viewBox="0 0 16 20" xmlns="http://www.w3.org/2000/svg" xmlns:xlink="http://www.w3.org/1999/xlink">
    <defs>
        <path id="o8chkvpita" d="M0 0h11v11.116H0z"/>
    </defs>
    <g fill="none" fill-rule="evenodd">
        <path d="M.075 19.2c-.484-3.35 1.398-6.61 4.6-7.953.293-.122.722-.117 1.03-.015 1.517.5 3.026.551 4.521-.01.455-.171.813-.125 1.23.063 3.13 1.417 4.94 4.586 4.47 7.915H.077z" fill="#FFF"/>
        <g transform="translate(3)">
            <mask id="ja0cxysjjb" fill="#fff">
                <use xlink:href="#o8chkvpita"/>
            </mask>
            <path d="M5.409 11.115C2.387 11.057-.041 8.549 0 5.526.043 2.384 2.569-.067 5.695.001c2.915.064 5.371 2.675 5.304 5.64-.07 3.104-2.55 5.532-5.59 5.474" fill="#FFF" mask="url(#ja0cxysjjb)"/>
        </g>
    </g>
</svg>
