<svg width="63" height="63" viewBox="0 0 63 63" xmlns="http://www.w3.org/2000/svg">
    <g fill="none" fill-rule="evenodd">
        <rect fill="#FFF" width="63" height="63" rx="8"/>
        <g fill="#866DE0" fill-rule="nonzero">
            <path d="M45.91 36h-9.517a.545.545 0 0 1-.55-.541c0-.299.247-.541.55-.541h9.517a.985.985 0 0 0 .991-.977V16.06a.985.985 0 0 0-.99-.977H16.09a.985.985 0 0 0-.991.977V33.94c0 .539.444.977.99.977h9.518c.303 0 .55.242.55.541a.545.545 0 0 1-.55.541H16.09c-1.152 0-2.09-.924-2.09-2.059V16.06c0-1.135.938-2.059 2.09-2.059h29.82c1.152 0 2.09.924 2.09 2.059V33.94C48 35.076 47.062 36 45.91 36z"/>
            <path d="M41.637 33h-7.63a.553.553 0 0 1-.555-.55c0-.303.249-.549.556-.549h7.12a3.35 3.35 0 0 1 2.76-2.727v-8.348a3.35 3.35 0 0 1-2.76-2.727H20.871a3.35 3.35 0 0 1-2.76 2.727v8.348a3.35 3.35 0 0 1 2.76 2.727h7.12c.307 0 .556.246.556.55 0 .303-.249.549-.556.549h-7.63a.553.553 0 0 1-.556-.55c0-1.226-1.009-2.223-2.25-2.223a.553.553 0 0 1-.556-.55v-9.355c0-.303.249-.55.556-.55 1.241 0 2.25-.996 2.25-2.223 0-.303.25-.549.556-.549h21.276c.307 0 .556.246.556.55 0 1.226 1.009 2.223 2.25 2.223.307 0 .556.246.556.55v9.355c0 .303-.249.55-.556.55-1.241 0-2.25.996-2.25 2.223 0 .303-.25.549-.556.549z"/>
            <path d="M36.432 21H25.568c-.314 0-.568-.224-.568-.5s.254-.5.568-.5h10.864c.314 0 .568.224.568.5s-.254.5-.568.5zM38.437 24H22.563c-.311 0-.563-.224-.563-.5s.252-.5.563-.5h15.874c.311 0 .563.224.563.5s-.252.5-.563.5zM38.437 27H22.563c-.311 0-.563-.224-.563-.5s.252-.5.563-.5h15.874c.311 0 .563.224.563.5s-.252.5-.563.5zM36.432 30H25.568c-.314 0-.568-.224-.568-.5s.254-.5.568-.5h10.864c.314 0 .568.224.568.5s-.254.5-.568.5zM30.5 42a4.505 4.505 0 0 1-4.5-4.5c0-2.481 2.019-4.5 4.5-4.5s4.5 2.019 4.5 4.5-2.019 4.5-4.5 4.5zm0-7.876a3.378 3.378 0 0 0-3.375 3.375 3.38 3.38 0 0 0 3.375 3.376 3.378 3.378 0 0 0 3.375-3.376 3.378 3.378 0 0 0-3.375-3.375z"/>
            <path d="M31 43c-3.309 0-6-2.691-6-6s2.691-6 6-6 6 2.693 6 6c0 3.309-2.691 6-6 6zm0-10.934a4.938 4.938 0 0 0-4.933 4.932A4.938 4.938 0 0 0 31 41.931a4.938 4.938 0 0 0 4.933-4.933A4.938 4.938 0 0 0 31 32.066z"/>
            <path d="M33.443 49a.585.585 0 0 1-.27-.067l-2.184-1.155-2.161 1.154a.58.58 0 0 1-.554-.005.529.529 0 0 1-.274-.46v-5.934c0-.295.25-.533.557-.533.307 0 .556.238.556.533v5.028l1.603-.856a.581.581 0 0 1 .541-.001l1.63.861v-5.033c0-.294.249-.532.556-.532.308 0 .557.238.557.532v5.935a.529.529 0 0 1-.274.46.576.576 0 0 1-.283.073z"/>
            <path d="M31.384 48c-.34 0-.617-.253-.617-.565v-4.87c0-.312.276-.565.617-.565.34 0 .616.253.616.565v4.87c0 .312-.276.565-.616.565zm-1.768-.008c-.34 0-.616-.253-.616-.565v-4.861c0-.312.276-.565.616-.565.34 0 .617.253.617.565v4.86c0 .313-.276.566-.617.566z"/>
        </g>
    </g>
</svg>
