<svg width="35" height="42" viewBox="0 0 35 42" xmlns="http://www.w3.org/2000/svg" xmlns:xlink="http://www.w3.org/1999/xlink">
    <defs>
        <path id="zma848itya" d="M0 0h35v27H0z"/>
        <path id="q0w7e8x2tc" d="M0 0h8v5H0z"/>
    </defs>
    <g fill="none" fill-rule="evenodd">
        <path d="M5.504 10h23.992c.672 0 .673-1 0-1H5.504c-.671 0-.673 1 0 1M9.5 16h16c.666 0 .667-1 0-1h-16c-.666 0-.667 1 0 1" fill="#FFF"/>
        <g>
            <mask id="sbhykybmqb" fill="#fff">
                <use xlink:href="#zma848itya"/>
            </mask>
            <path d="M26.68 26.935h4.949c1.904 0 3.34-1.252 3.358-3.192.03-3.183 0-6.368 0-9.551V3.597c0-.358.013-.717-.05-1.07-.24-1.37-1.42-2.405-2.81-2.504-.648-.047-1.311-.008-1.96-.008H3.492C1.835.015.288.882.059 2.664-.053 3.542.03 4.47.03 5.35v17.183c0 1.235-.1 2.453.831 3.445 1.307 1.392 3.768.956 5.49.956h1.986c.67 0 .672-1.035 0-1.035H3.588c-1.041 0-2.048-.263-2.418-1.38-.116-.35-.099-.71-.099-1.07V3.7c0-.214-.01-.432 0-.646.054-1.148.897-1.963 2.05-2.004.716-.026 1.439 0 2.156 0H31.218c.225 0 .452-.009.677 0 1.156.044 1.996.852 2.05 2.004.12 2.562 0 5.159 0 7.723v11.271c0 .81.169 1.934-.187 2.695-.46.985-1.406 1.156-2.374 1.156h-4.705c-.67 0-.671 1.035 0 1.035" fill="#FFF" mask="url(#sbhykybmqb)"/>
        </g>
        <path d="M20.943 28.998c-.047 1.607-1.31 2.949-2.954 2.949-1.615 0-2.948-1.34-2.954-2.949-.006-1.608 1.348-2.949 2.954-2.949 1.644 0 2.907 1.342 2.954 2.95.019.677 1.076.68 1.057 0-.048-1.665-1.025-3.152-2.606-3.748-1.581-.597-3.423-.101-4.496 1.2-2.34 2.835.23 7.145 3.835 6.48 1.91-.352 3.212-2.035 3.267-3.933.02-.68-1.038-.679-1.057 0" fill="#FFF"/>
        <path d="M18.776 23.548a2.862 2.862 0 0 0 1.646.806c.651.087 1.225.097 1.71.627.491.54.387 1.154.526 1.806.15.7.572 1.086.959 1.64.422.604.456 1.409.054 2.034-.38.59-.862.996-1.013 1.726-.117.566-.028 1.105-.376 1.615-.468.684-1.122.72-1.86.818-1.364.182-2.208 1.85-3.685 1.161-.552-.257-.911-.769-1.497-.995-.611-.236-1.305-.099-1.885-.411-.614-.332-.893-.923-.948-1.592-.058-.7-.228-1.294-.68-1.847-.468-.573-.826-1.122-.626-1.901.171-.664.782-1.07 1.057-1.688.29-.648.132-1.39.464-2.013.392-.735 1.063-.888 1.819-.961.716-.07 1.24-.38 1.784-.825.791-.646 1.765-.72 2.551 0 .496.454 1.237-.285.74-.74-1.216-1.113-2.808-1.04-4.03 0-.73.62-1.537.408-2.364.75a2.85 2.85 0 0 0-1.514 1.48c-.312.705-.119 1.536-.566 2.182-.478.689-.973 1.17-1.035 2.068-.053.76.207 1.476.683 2.06.287.354.561.644.645 1.117.073.416.038.822.176 1.23a2.89 2.89 0 0 0 1.154 1.486c.755.49 1.622.268 2.377.66.698.362 1.095.951 1.924 1.11a2.853 2.853 0 0 0 2.287-.56c.237-.184.436-.41.706-.55.398-.207.803-.178 1.229-.237a2.836 2.836 0 0 0 1.886-1.12c.479-.645.46-1.272.593-2.019.153-.87 1.016-1.378 1.242-2.248a2.897 2.897 0 0 0-.39-2.32c-.27-.403-.646-.684-.797-1.167-.128-.41-.068-.851-.175-1.267a2.875 2.875 0 0 0-1.543-1.853c-.822-.388-1.8-.112-2.489-.803-.476-.477-1.216.264-.739.741" fill="#FFF"/>
        <g transform="translate(14 37)">
            <mask id="vmq3f3lwxd" fill="#fff">
                <use xlink:href="#q0w7e8x2tc"/>
            </mask>
            <path d="M6.946.459v4.06l.793-.41-3.472-2.084a.566.566 0 0 0-.532 0L.261 4.11l.793.41V.459C1.054-.152 0-.153 0 .459v4.06c0 .345.454.614.793.41l3.474-2.083h-.532L7.207 4.93c.339.203.793-.066.793-.41V.459c0-.611-1.054-.612-1.054 0" fill="#FFF" mask="url(#vmq3f3lwxd)"/>
        </g>
    </g>
</svg>
