<svg width="20" height="20" viewBox="0 0 20 20" xmlns="http://www.w3.org/2000/svg">
    <g fill="#6DD400" fill-rule="evenodd">
        <path d="M2.322 17.722c.994-.257 1.909-.485 2.815-.74.257-.068.455-.03.681.1 1.717.983 3.557 1.351 5.522 1.036 4.527-.722 7.627-4.935 6.935-9.42a8.315 8.315 0 0 0-9.732-6.925C2.94 2.797-.034 9.01 2.752 13.93c.309.545.394.994.186 1.574-.247.698-.4 1.426-.616 2.218M0 20c.112-.432.21-.807.312-1.183.33-1.201.67-2.4.984-3.604a.878.878 0 0 0-.06-.58C-1.832 8.817 1.334 1.776 7.772.273c5.846-1.363 11.102 2.562 12.062 7.811.998 5.475-2.603 10.677-8.063 11.627-2.17.373-4.246.056-6.228-.902a.981.981 0 0 0-.613-.066C2.29 19.4.533 19.896 0 20"/>
        <path d="M12.588 14.995c-1.93-.07-5.004-1.604-7.109-5.288-.747-1.309-.64-2.802.456-3.827.37-.348.834-.263 1.27-.189.106.017.218.181.271.303.28.643.557 1.286.8 1.945.13.347-.108.674-.607 1.253-.16.183-.192.353-.068.566.81 1.38 1.942 2.38 3.43 2.966.219.085.382.032.521-.14.789-.97.87-1.254 1.284-1.055 1.997.961 2.153 1.001 2.162 1.23.068 1.694-1.475 2.305-2.41 2.236"/>
    </g>
</svg>
