<svg width="40" height="40" viewBox="0 0 40 40" xmlns="http://www.w3.org/2000/svg" xmlns:xlink="http://www.w3.org/1999/xlink">
    <defs>
        <path id="fu4xxu1moa" d="M0 0h40v39.152H0z"/>
    </defs>
    <g fill="none" fill-rule="evenodd">
        <g>
            <mask id="4tw6r0ihrb" fill="#fff">
                <use xlink:href="#fu4xxu1moa"/>
            </mask>
            <path d="M29.297 0H10.703C4.793 0 0 4.7 0 10.497v18.158c0 5.798 4.792 10.497 10.703 10.497h18.594c5.911 0 10.703-4.7 10.703-10.497V10.497C40 4.7 35.208 0 29.297 0" fill="#866DE0" mask="url(#4tw6r0ihrb)"/>
        </g>
        <path d="M9.965 29.527c1.299-.331 2.495-.625 3.68-.952.335-.089.593-.04.89.127 2.243 1.268 4.648 1.742 7.217 1.336 5.916-.93 9.969-6.36 9.064-12.14-.94-5.992-6.668-10.011-12.72-8.923-7.323 1.319-11.21 9.326-7.57 15.665.404.703.515 1.282.244 2.03-.323.899-.523 1.837-.805 2.857M6.93 32.463c.147-.556.275-1.04.407-1.525.432-1.548.876-3.093 1.286-4.644.06-.232.034-.54-.078-.747-4.01-7.496.128-16.569 8.543-18.506 7.641-1.756 14.51 3.301 15.765 10.066 1.305 7.055-3.401 13.76-10.538 14.984-2.838.48-5.55.072-8.14-1.163a1.3 1.3 0 0 0-.802-.085c-3.451.849-5.747 1.486-6.443 1.62" fill="#FFF"/>
        <path d="M23.438 25.605c-2.544-.09-6.598-2.06-9.374-6.79-.986-1.68-.844-3.597.6-4.913.489-.447 1.1-.338 1.675-.243.14.021.287.233.358.39.37.825.734 1.65 1.056 2.496.17.446-.143.866-.802 1.61-.21.234-.253.452-.089.726 1.068 1.773 2.56 3.055 4.524 3.808.288.11.503.041.686-.18 1.04-1.245 1.147-1.61 1.694-1.354 2.633 1.234 2.838 1.285 2.85 1.578.09 2.176-1.944 2.96-3.178 2.872" fill="#FFF"/>
    </g>
</svg>
