<svg width="15" height="21" viewBox="0 0 15 21" xmlns="http://www.w3.org/2000/svg" xmlns:xlink="http://www.w3.org/1999/xlink">
    <defs>
        <path id="nywnv7syea" d="M0 0h15v21H0z"/>
    </defs>
    <g fill="none" fill-rule="evenodd">
        <path d="M10.859 5.08a.375.375 0 0 0-.523.06l-3.18 3.962L5.619 7.76a.375.375 0 0 0-.525.032.363.363 0 0 0 .033.518l1.833 1.597a.374.374 0 0 0 .537-.047l3.424-4.266a.364.364 0 0 0-.061-.516" fill="#FFF"/>
        <path d="M7 12.211c-2.362 0-4.283-2.113-4.283-4.711 0-2.598 1.921-4.711 4.283-4.711s4.283 2.113 4.283 4.711c0 2.598-1.921 4.711-4.283 4.711M7 2C4.243 2 2 4.467 2 7.5S4.243 13 7 13s5-2.467 5-5.5S9.757 2 7 2" fill="#FFF"/>
        <g>
            <mask id="g1wtlr7e2b" fill="#fff">
                <use xlink:href="#nywnv7syea"/>
            </mask>
            <path d="M11.82 17.767a.36.36 0 0 0-.377.208l-.852 1.81-2.16-4.342a7.318 7.318 0 0 0 3.446-1.401l2.003 4.024-2.06-.299zm-3.987-3.021c-.11.005-.221.008-.333.008-3.735 0-6.774-3.14-6.774-7.002C.726 3.892 3.765.75 7.5.75s6.774 3.142 6.774 7.002c0 3.743-2.856 6.81-6.434 6.993h-.007zm-3.479 5.042-.901-1.938a.36.36 0 0 0-.377-.209l-1.929.272L3.2 14.098a7.31 7.31 0 0 0 3.484 1.36l-2.33 4.33zm8.102-6.224A7.848 7.848 0 0 0 15 7.752C15 3.478 11.636 0 7.5 0S0 3.478 0 7.752a7.845 7.845 0 0 0 2.62 5.88L.16 18.204a.385.385 0 0 0 .017.394c.078.117.213.18.35.16l2.386-.336 1.09 2.345c.06.126.181.208.317.212h.01a.361.361 0 0 0 .318-.193l2.842-5.281h.01c.048 0 .095-.003.143-.004l2.635 5.295A.362.362 0 0 0 10.6 21h.004a.363.363 0 0 0 .322-.211l1.054-2.24 2.492.36a.358.358 0 0 0 .347-.153.386.386 0 0 0 .026-.39l-2.39-4.802z" fill="#FFF" mask="url(#g1wtlr7e2b)"/>
        </g>
    </g>
</svg>
