<svg width="18" height="21" viewBox="0 0 18 21" xmlns="http://www.w3.org/2000/svg" xmlns:xlink="http://www.w3.org/1999/xlink">
    <defs>
        <path id="g2qzbjqeza" d="M0 0h18v6H0z"/>
        <path id="fmf9gmr5rc" d="M0 0h18v5H0z"/>
    </defs>
    <g fill="none" fill-rule="evenodd">
        <path d="M12.333 8.913c.463 1.806-.45 4.177-2.06 5.165-1.774 1.09-3.464-.427-4.197-2.004-.488-1.048-.706-2.308-.315-3.419l-.265.201c1.18-.129 2.23-.613 3.118-1.392h-.39a6.285 6.285 0 0 0 4.375 1.65c.354-.006.355-.553 0-.547a5.715 5.715 0 0 1-3.985-1.49.284.284 0 0 0-.39 0c-.769.675-1.703 1.12-2.728 1.232-.13.014-.222.076-.266.2-.725 2.058.338 4.807 2.148 5.99.828.542 1.84.664 2.755.268.975-.422 1.71-1.297 2.183-2.223.586-1.146.873-2.511.548-3.776-.087-.341-.618-.197-.53.145M14.999 14.74c.01-1.389-.058-2.781-.24-4.161-.16-1.2-.436-2.413-1.176-3.452-.21-.294-.746-.024-.535.272.731 1.025.982 2.238 1.122 3.422.154 1.302.22 2.61.21 3.919-.002.347.617.347.619 0M3.62 14.74c-.01-1.309.056-2.617.21-3.919.14-1.183.39-2.397 1.122-3.422.21-.295-.325-.566-.535-.272-.74 1.039-1.017 2.253-1.175 3.452A30.074 30.074 0 0 0 3 14.739c.002.347.621.348.619 0" fill="#FFF"/>
        <g transform="translate(0 15)">
            <mask id="uzrmkgo8lb" fill="#fff">
                <use xlink:href="#g2qzbjqeza"/>
            </mask>
            <path d="M.551 5.73.69 3.366l.033-.57c.003-.053-.002-.114.01-.166.01-.047.033-.058.018-.022.265-.649.98-.843 1.579-.994.695-.176 1.397-.326 2.096-.485.181-.042.358-.088.53-.16.41-.174.646-.547 1.092-.282.226.134.448.278.672.417L8.937 2.48c.08.05.196.053.277 0l1.873-1.213c.28-.182.56-.368.843-.546.29-.182.445-.15.72.034.249.167.52.278.81.347.664.16 1.336.295 2 .459.518.127 1.051.221 1.454.61.371.358.352.442.381.937l.154 2.622c.02.359.572.361.55 0l-.146-2.497c-.02-.36.007-.694-.187-1.007-.353-.567-.895-.908-1.524-1.07-.772-.2-1.55-.37-2.328-.547-.167-.038-.339-.07-.5-.131-.4-.152-.664-.495-1.12-.466-.329.022-.627.28-.899.456L8.937 1.995h.277L7.112.69C6.85.528 6.587.366 6.326.202c-.246-.153-.5-.249-.793-.178-.4.096-.692.426-1.104.53-.702.176-1.414.309-2.116.486-.574.145-1.12.277-1.576.695-.23.21-.493.52-.551.834-.019.102-.013.216-.019.32L.001 5.73c-.022.36.53.36.55 0" fill="#FFF" mask="url(#uzrmkgo8lb)"/>
        </g>
        <path d="m11.956 15.39-1.122-2.183c-.24-.467-1.028-.062-.79.402l1.122 2.184c.24.467 1.028.062.79-.402M5.834 15.793l1.122-2.184c.238-.464-.55-.869-.79-.402l-1.122 2.184c-.238.464.55.869.79.402M12.8 6.402c-1.24-.505-2.459-.934-3.8-.935-1.34 0-2.56.43-3.8.935l.344.29V4.223l-.2.289C6.538 4.026 7.707 3.599 9 3.599c1.293 0 2.462.427 3.656.914l-.2-.29v2.468c0 .386.544.386.544 0V4.224a.306.306 0 0 0-.2-.29C11.56 3.43 10.341 3.002 9 3c-1.34-.001-2.56.43-3.8.935a.307.307 0 0 0-.2.289V6.69c0 .181.176.358.344.289C6.538 6.493 7.707 6.066 9 6.066c1.293 0 2.462.427 3.656.914.329.134.47-.445.144-.578" fill="#FFF"/>
        <g>
            <mask id="hd9dbfrm0d" fill="#fff">
                <use xlink:href="#fmf9gmr5rc"/>
            </mask>
            <path d="m4.593 4.39-2.707-.588c-.387-.084-.858-.108-1.227-.266-.058-.025-.091.011-.064-.028.032-.046.212-.073.262-.09L6.989 1.31 8.306.857c.202-.07.462-.22.674-.232.101-.006.205.05.303.084l1.027.353L16.76 3.28c.07.024.67.16.688.236-.002-.008-.843.184-.905.197l-3.117.678c-.355.077-.205.68.15.602l2.986-.649c.341-.074.724-.107 1.053-.235.573-.222.461-1.004-.051-1.207-.765-.303-1.56-.536-2.336-.803L11.412.787C10.676.534 9.936.218 9.187.02c-.223-.058-.393.014-.599.085L7.42.508.737 2.805c-.257.089-.556.15-.677.454-.234.587.261.838.673.928l3.421.743.29.063c.354.077.506-.525.15-.602" fill="#FFF" mask="url(#hd9dbfrm0d)"/>
        </g>
        <path d="M0 3.287v4.426c0 .382 1 .383 1 0V3.287c0-.382-1-.383-1 0" fill="#FFF"/>
        <path d="M1.267 8c-.019.344-.534.346-.534 0s.515-.342.534 0c.025.47.758.473.732 0-.029-.541-.435-1-1-1C.455 7 .005 7.458 0 8a1.01 1.01 0 0 0 .965 1C1.543 9.021 1.97 8.554 2 8c.026-.471-.707-.47-.732 0" fill="#FFF"/>
    </g>
</svg>
