<svg width="22" height="17" viewBox="0 0 22 17" xmlns="http://www.w3.org/2000/svg" xmlns:xlink="http://www.w3.org/1999/xlink">
    <defs>
        <path id="qwhj8xl88a" d="M0 0h22v7H0z"/>
        <path id="sbpw1sghic" d="M0 0h12v11H0z"/>
    </defs>
    <g fill="none" fill-rule="evenodd">
        <path d="M11.306 8.92a.415.415 0 0 0 .281.079.397.397 0 0 0 .26-.12l4.072-4.364c.129-.137.101-.337-.06-.446a.42.42 0 0 0-.527.052l-3.826 4.101L9.622 6.81a.422.422 0 0 0-.528.028c-.137.131-.122.332.033.449l2.18 1.633z" fill="#FFF"/>
        <g transform="translate(0 10)">
            <mask id="qxgeeq4tyb" fill="#fff">
                <use xlink:href="#qwhj8xl88a"/>
            </mask>
            <path d="M19.58 3.175c-.696.406-2.496 1.299-3.36 1.728l-.302.15-.289.147c-.981.5-2.203 1.125-4.196 1.125-.794 0-2.375-.372-3.77-.7-1.289-.302-2.143-.497-2.616-.517L4.44 1.273C5.2 1.05 5.837.941 6.324.953c1.06.067 2.396.744 3.28 1.192.274.139.51.258.696.34.122.058.371.142.576.195.149.04.306.057.467.05.467-.02 1.728-.086 3.363-.283.27-.032.415.026.503.074.15.081.275.22.42.381l.048.054c.093.104.106.16.103.172-.042.174-.76.473-1.337.713l-.445.187c-.625.267-2.842 1.05-5.149-.075a.372.372 0 0 0-.485.144.328.328 0 0 0 .153.455 6.593 6.593 0 0 0 2.914.665 7.54 7.54 0 0 0 2.865-.574c.152-.065.299-.126.44-.185.976-.407 1.622-.676 1.745-1.178.061-.248-.024-.503-.254-.76l-.048-.053a8.09 8.09 0 0 0-.134-.147c1.052-.413 1.899-.538 1.985-.399a.37.37 0 0 0 .404.155l.033-.008c1.85-.468 2.511-.393 2.74-.249a.22.22 0 0 1 .028.022c-.106.21-.463.64-1.656 1.334M4.22 5.815a.652.652 0 0 1-.439.264l-1.631.228c-.379.052-.73-.23-.79-.616l-.63-3.977C.667 1.322.92.961 1.295.91l1.63-.227a.663.663 0 0 1 .092-.007c.343 0 .643.268.7.623l.629 3.976a.717.717 0 0 1-.127.54m17.778-3.959c-.003-.026-.012-.05-.018-.074a.314.314 0 0 0-.02-.082.82.82 0 0 0-.35-.44c-.65-.411-1.942-.185-3.157.114-.68-.46-2.243.12-3.068.482a1.62 1.62 0 0 0-.77-.078 44.21 44.21 0 0 1-3.303.278.785.785 0 0 1-.24-.025 3.425 3.425 0 0 1-.457-.152 15.93 15.93 0 0 1-.668-.327C9.007 1.076 7.588.357 6.358.28 5.774.265 5.05.386 4.205.635A1.44 1.44 0 0 0 2.82.014L1.189.24A1.37 1.37 0 0 0 .017 1.813l.63 3.977a1.436 1.436 0 0 0 1.608 1.184l1.63-.227a1.371 1.371 0 0 0 1.132-.966c.41.016 1.456.26 2.47.5 1.436.337 3.064.719 3.946.719 2.176 0 3.542-.698 4.54-1.207l.282-.144.3-.149c.94-.466 2.687-1.333 3.404-1.751 1.048-.61 1.666-1.125 1.913-1.596.09-.07.14-.181.125-.298" fill="#FFF" mask="url(#qxgeeq4tyb)"/>
        </g>
        <g transform="translate(6)">
            <mask id="rdgn0ozp6d" fill="#fff">
                <use xlink:href="#sbpw1sghic"/>
            </mask>
            <path d="M6 .652c2.916 0 5.289 2.175 5.289 4.848S8.916 10.348 6 10.348C3.084 10.348.711 8.173.711 5.5S3.084.652 6 .652M6 11c3.308 0 6-2.467 6-5.5S9.308 0 6 0 0 2.467 0 5.5 2.692 11 6 11" fill="#FFF" mask="url(#rdgn0ozp6d)"/>
        </g>
    </g>
</svg>
