<svg width="40" height="41" viewBox="0 0 40 41" xmlns="http://www.w3.org/2000/svg" xmlns:xlink="http://www.w3.org/1999/xlink">
    <defs>
        <path id="gkhk0dv3ja" d="M0 0h13.77v13.115H0z"/>
    </defs>
    <g fill="none" fill-rule="evenodd">
        <path d="M23.734 23.607c-1.066 0-2.051-.482-2.635-1.29a.615.615 0 0 1 .104-.83.54.54 0 0 1 .785.111c.368.509 1.037.825 1.746.825 1.12 0 2.031-.754 2.031-1.68 0-.843-.8-1.562-1.86-1.674-1.513-.122-2.652-1.256-2.652-2.644 0-1.464 1.307-2.655 2.913-2.655.968 0 1.869.435 2.41 1.162.192.257.15.63-.093.832a.54.54 0 0 1-.786-.1c-.331-.444-.904-.71-1.531-.71-.989 0-1.793.66-1.793 1.471 0 .752.715 1.395 1.627 1.464a.9.9 0 0 1 .03.003c1.656.181 2.855 1.378 2.855 2.85 0 1.58-1.414 2.865-3.151 2.865" fill="#866DE0"/>
        <path d="M23.607 24.918c-.363 0-.656-.25-.656-.556v-1.51c0-.308.293-.557.656-.557.362 0 .655.249.655.556v1.51c0 .308-.293.557-.655.557M23.607 14.426c-.363 0-.656-.243-.656-.543v-1.537c0-.3.293-.543.656-.543.362 0 .655.243.655.543v1.537c0 .3-.293.543-.655.543M13.036 37.377a.58.58 0 0 1-.38-1.014 5.908 5.908 0 0 1 4.248-1.476l6.503.353a4.383 4.383 0 0 0 2.826-.842l10.89-7.995a2.699 2.699 0 0 0 .727-.715c.614-.89.298-1.795-.158-2.3-.454-.5-1.257-.858-2.148-.356a2.288 2.288 0 0 0-.095.057l-5.862 3.645a.575.575 0 0 1-.794-.187.58.58 0 0 1 .187-.797l5.86-3.645a3.8 3.8 0 0 1 .139-.083c1.203-.677 2.635-.44 3.566.588.8.883 1.19 2.382.253 3.739-.271.391-.608.726-1.003.995l-10.881 7.989a5.552 5.552 0 0 1-3.57 1.064l-6.503-.353a4.756 4.756 0 0 0-3.424 1.19.574.574 0 0 1-.38.143" fill="#866DE0"/>
        <path d="M24.97 30.82h-8.274a.577.577 0 0 1-.582-.571c0-.316.26-.571.582-.571h8.273c.777 0 1.408-.62 1.408-1.382 0-.762-.631-1.381-1.408-1.381h-7.467c-.685 0-1.33-.295-1.77-.81l-.295-.344a4.77 4.77 0 0 0-3.144-1.642 4.814 4.814 0 0 0-4.107 1.59l-3.224 3.767a.59.59 0 0 1-.82.07.563.563 0 0 1-.071-.805l3.23-3.772a5.994 5.994 0 0 1 5.115-1.986 5.934 5.934 0 0 1 3.912 2.043l.295.345c.219.256.54.402.879.402h7.467c1.418 0 2.572 1.132 2.572 2.523 0 1.392-1.154 2.524-2.572 2.524M12.226 40.656a.59.59 0 0 1-.35-.114.552.552 0 0 1-.113-.79.902.902 0 0 0-.17-1.276l-9.209-6.99a.962.962 0 0 0-.706-.188.947.947 0 0 0-.633.356.594.594 0 0 1-.815.109.551.551 0 0 1-.112-.789c.344-.44.845-.722 1.41-.793a2.142 2.142 0 0 1 1.574.419l9.208 6.99a2.01 2.01 0 0 1 .38 2.843.588.588 0 0 1-.464.223M14.186 22.95a.578.578 0 0 1-.55-.397 10.643 10.643 0 0 1-.521-3.299c0-5.916 4.853-10.73 10.82-10.73 5.965 0 10.82 4.814 10.82 10.73 0 .997-.139 1.985-.41 2.935a.58.58 0 0 1-.715.395.573.573 0 0 1-.398-.708c.243-.848.366-1.73.366-2.622 0-5.284-4.335-9.583-9.664-9.583-5.328 0-9.663 4.3-9.663 9.583 0 1.007.157 1.998.466 2.947a.572.572 0 0 1-.55.75M8.688 19.016c-3.706 0-6.72-3.088-6.72-6.885 0-3.796 3.014-6.885 6.72-6.885 2.879 0 5.436 1.874 6.363 4.663a.586.586 0 0 1-.354.74.565.565 0 0 1-.722-.364c-.77-2.318-2.895-3.874-5.287-3.874-3.079 0-5.584 2.566-5.584 5.72 0 3.155 2.505 5.72 5.584 5.72.309 0 .619-.025.92-.077a.57.57 0 0 1 .654.48.58.58 0 0 1-.468.67 6.613 6.613 0 0 1-1.106.092" fill="#866DE0"/>
        <path d="M8.935 15.738c-2.034 0-3.69-1.618-3.69-3.607s1.656-3.606 3.69-3.606c1.58 0 2.984.981 3.493 2.442a.552.552 0 0 1-.354.704.57.57 0 0 1-.72-.346c-.353-1.011-1.325-1.69-2.419-1.69-1.408 0-2.554 1.12-2.554 2.496 0 1.377 1.146 2.497 2.554 2.497.142 0 .284-.012.422-.034.31-.05.601.155.653.457a.557.557 0 0 1-.468.638c-.199.032-.403.049-.607.049" fill="#866DE0"/>
        <g transform="translate(26.23)">
            <mask id="u09h6rtjub" fill="#fff">
                <use xlink:href="#gkhk0dv3ja"/>
            </mask>
            <path d="M8.714 13.115a.58.58 0 0 1-.557-.402.563.563 0 0 1 .389-.706c2.39-.703 4.06-2.89 4.06-5.319 0-3.064-2.566-5.557-5.72-5.557-3.155 0-5.721 2.493-5.721 5.557 0 .313-.261.566-.583.566A.574.574 0 0 1 0 6.688C0 3 3.089 0 6.885 0c3.797 0 6.886 3 6.886 6.688 0 2.97-1.965 5.543-4.888 6.402a.602.602 0 0 1-.169.025" fill="#866DE0" mask="url(#u09h6rtjub)"/>
        </g>
        <path d="M33.99 10.492a.6.6 0 0 1-.17-1.17c1.018-.313 1.727-1.288 1.727-2.371 0-1.366-1.09-2.477-2.432-2.477-1.342 0-2.433 1.111-2.433 2.477 0 .33-.263.598-.587.598a.592.592 0 0 1-.587-.598c0-2.025 1.618-3.672 3.607-3.672S36.72 4.926 36.72 6.95c0 1.63-1.029 3.043-2.56 3.515a.58.58 0 0 1-.17.026" fill="#866DE0"/>
    </g>
</svg>
