<svg width="18" height="21" viewBox="0 0 18 21" xmlns="http://www.w3.org/2000/svg" xmlns:xlink="http://www.w3.org/1999/xlink">
    <defs>
        <path id="c2horlmxba" d="M0 0h18v11H0z"/>
    </defs>
    <g fill="none" fill-rule="evenodd">
        <path d="M8.998.654A3.347 3.347 0 0 0 6.01 5.503a3.32 3.32 0 0 0 2.988 1.843c1.273 0 2.42-.707 2.993-1.844A3.35 3.35 0 0 0 8.998.654m0 7.346a3.971 3.971 0 0 1-3.573-2.204A4.002 4.002 0 0 1 8.998 0a4.005 4.005 0 0 1 3.577 5.796A3.986 3.986 0 0 1 8.998 8M10.307 13a.253.253 0 0 1-.15-.051c-.148-.11-.2-.353-.117-.545l1.386-3.2c.083-.193.27-.26.418-.152.147.108.2.352.116.544l-1.386 3.2c-.056.13-.16.204-.267.204M8.686 12a.316.316 0 0 1-.276-.157L7.04 9.451a.298.298 0 0 1 .122-.413.32.32 0 0 1 .428.119l1.37 2.392a.298.298 0 0 1-.122.413.323.323 0 0 1-.152.038M.5 16a.498.498 0 0 1-.5-.497v-.004A.5.5 0 1 1 .5 16" fill="#FFF"/>
        <path d="M4.318 11a.312.312 0 0 1-.276-.183c-.087-.175-.035-.398.117-.499.032-.02.063-.044.093-.066l.08-.058c.77-.541 1.51-.927 2.262-1.18.168-.056.344.056.393.25.05.193-.048.396-.216.452-.697.234-1.387.594-2.11 1.102l-.066.048c-.04.03-.079.059-.12.086a.286.286 0 0 1-.157.048M17.5 16a.498.498 0 0 1-.5-.497v-.004a.5.5 0 1 1 .5.501M13.686 11a.284.284 0 0 1-.169-.057 9.702 9.702 0 0 0-.223-.16c-.711-.498-1.388-.85-2.069-1.08-.166-.055-.26-.255-.212-.445.048-.19.222-.299.388-.244.735.247 1.46.625 2.22 1.155.078.056.157.112.235.17.146.107.188.33.094.496a.305.305 0 0 1-.264.165" fill="#FFF"/>
        <g transform="translate(0 10)">
            <mask id="da00h8cxeb" fill="#fff">
                <use xlink:href="#c2horlmxba"/>
            </mask>
            <path d="M17.219 7.893c-1.252.082-4.868.452-7.316 2.027V2.95a.358.358 0 0 0-.006-.064c2.26-1.675 6.084-2.08 7.355-2.17-.72 3.768-.284 6.219-.033 7.177m-8.56 2.355V3.215c.187.056.386.065.577.026v7.034c-.191.042-.39.034-.576-.027M.749.717c1.25.088 4.968.48 7.243 2.09v7.047C5.547 8.335 2.015 7.974.782 7.893c.25-.958.686-3.409-.033-7.176M17.992.42a.356.356 0 0 0-.069-.294.316.316 0 0 0-.266-.125c-.223.006-5.49.184-8.344 2.47a.503.503 0 0 1-.626.001C5.832.185.566.007.343.001a.319.319 0 0 0-.266.125.356.356 0 0 0-.07.294c1.028 4.9.027 7.642.017 7.668a.358.358 0 0 0 .031.319c.06.094.16.152.27.156.048.001 4.922.166 7.672 2.115a1.727 1.727 0 0 0 2.006 0c2.75-1.95 7.624-2.114 7.673-2.115a.331.331 0 0 0 .269-.156.358.358 0 0 0 .031-.319c-.01-.026-1.016-2.745.016-7.668" fill="#FFF" mask="url(#da00h8cxeb)"/>
        </g>
        <path d="M12.314 15c-.105 0-.207-.066-.267-.186-.09-.185-.047-.426.1-.541.35-.276 2.793-1.224 3.523-1.273.173-.006.32.156.33.373.009.218-.124.403-.297.415-.652.043-2.976.96-3.224 1.153a.267.267 0 0 1-.165.059" fill="#FFF"/>
    </g>
</svg>
