<svg width="40" height="38" viewBox="0 0 40 38" xmlns="http://www.w3.org/2000/svg">
    <g fill="#866DE0" fill-rule="evenodd">
        <path d="M11.878 18.765c-1.16 0-2.234-.482-2.87-1.29a.556.556 0 0 1 .11-.793.593.593 0 0 1 .815.106c.417.53 1.144.846 1.945.846 1.25 0 2.267-.776 2.267-1.73 0-.87-.893-1.61-2.076-1.725-1.646-.122-2.884-1.254-2.884-2.64 0-1.461 1.421-2.65 3.168-2.65 1.053 0 2.034.434 2.624 1.162a.555.555 0 0 1-.097.794.593.593 0 0 1-.817-.094c-.371-.458-1.01-.73-1.71-.73-1.105 0-2.004.68-2.004 1.518 0 .777.8 1.442 1.82 1.513l.033.003c1.801.181 3.107 1.377 3.107 2.849 0 1.578-1.54 2.861-3.43 2.861"/>
        <path d="M11.852 20.247c-.273 0-.494-.272-.494-.608v-1.747c0-.336.221-.608.494-.608s.494.272.494.608v1.747c0 .336-.221.608-.494.608M11.852 9.877c-.273 0-.494-.266-.494-.594V7.507c0-.328.221-.593.494-.593s.494.265.494.593v1.776c0 .328-.221.594-.494.594"/>
        <path d="M7.892 21.235a.564.564 0 0 1-.27-.069 8.895 8.895 0 0 1-4.659-7.826c0-4.905 3.988-8.896 8.889-8.896s8.889 3.991 8.889 8.896a.566.566 0 1 1-1.131 0c0-4.28-3.48-7.764-7.758-7.764-4.278 0-7.758 3.483-7.758 7.764a7.765 7.765 0 0 0 4.068 6.83.566.566 0 0 1-.27 1.065M4.52 37.53a.568.568 0 0 1-.57-.567V29.21c0-.314.255-.568.57-.568h7.257c.314 0 .569.254.569.568v5.12a.568.568 0 0 1-1.138 0v-4.553h-6.12v7.186a.568.568 0 0 1-.568.568M16.371 37.53a.568.568 0 0 1-.569-.565V23.776c0-.312.255-.566.57-.566h7.257c.314 0 .569.254.569.566V34.34a.568.568 0 0 1-.57.566.568.568 0 0 1-.568-.566v-9.996h-6.12v12.622a.568.568 0 0 1-.569.566M28.223 37.53a.57.57 0 0 1-.569-.57V13.41a.57.57 0 0 1 .569-.57h7.258a.57.57 0 0 1 .568.57v20.587a.57.57 0 1 1-1.137 0V13.98h-6.12v22.98a.57.57 0 0 1-.569.57M.494 37.53c-.273 0-.494-.253-.494-.565V.566C0 .253.221 0 .494 0s.494.253.494.566v36.399c0 .312-.221.566-.494.566"/>
        <path d="M39.435 37.53H.565c-.312 0-.565-.22-.565-.493s.253-.494.565-.494h38.87c.312 0 .565.221.565.494s-.253.494-.565.494M28.227 4.938c-.304 0-.558-.226-.572-.515-.015-.298.23-.55.546-.564 1.41-.062 2.788-.35 4.094-.855a.586.586 0 0 1 .748.294.53.53 0 0 1-.312.705 14.061 14.061 0 0 1-4.504.935"/>
        <path d="M4.021 27.16a.569.569 0 0 1-.18-1.106c9.974-3.366 18.521-9.667 24.72-18.22l3.362-4.638a.563.563 0 0 1 1.02.348 12.19 12.19 0 0 0 .609 4.111.569.569 0 0 1-.359.718.563.563 0 0 1-.713-.361 13.337 13.337 0 0 1-.601-2.827l-2.406 3.32C23.135 17.247 14.396 23.688 4.2 27.13c-.06.02-.12.03-.18.03"/>
    </g>
</svg>
