<svg width="18" height="21" viewBox="0 0 18 21" xmlns="http://www.w3.org/2000/svg" xmlns:xlink="http://www.w3.org/1999/xlink">
    <defs>
        <path id="d53726018a" d="M0 0h17.5v13.5H0z"/>
        <path id="slhd8htgmc" d="M0 0h4v2.5H0z"/>
    </defs>
    <g fill="none" fill-rule="evenodd">
        <path d="M2.752 5h11.996c.336 0 .336-.5 0-.5H2.752c-.336 0-.336.5 0 .5M4.75 8h8c.333 0 .334-.5 0-.5h-8c-.333 0-.334.5 0 .5" fill="#FFF"/>
        <g>
            <mask id="lln6npmrzb" fill="#fff">
                <use xlink:href="#d53726018a"/>
            </mask>
            <path d="M13.34 13.468h2.474c.952 0 1.67-.627 1.68-1.597.014-1.591 0-3.184 0-4.775V1.798c0-.178.006-.358-.025-.535A1.54 1.54 0 0 0 16.064.011c-.325-.023-.656-.003-.98-.003H1.745C.918.008.144.44.03 1.332c-.057.439-.015.903-.015 1.344v8.591c0 .618-.05 1.226.415 1.722.654.697 1.884.479 2.745.479h.993c.335 0 .336-.518 0-.518H1.794c-.52 0-1.024-.131-1.21-.69-.057-.175-.049-.355-.049-.535V1.85c0-.108-.005-.216 0-.323C.562.954.984.546 1.56.525c.359-.013.72 0 1.078 0H15.61c.113 0 .226-.004.339 0 .577.023.997.426 1.024 1.003.06 1.28 0 2.579 0 3.861v5.635c0 .406.085.968-.093 1.348-.23.493-.703.578-1.187.578H13.34c-.336 0-.336.518 0 .518" fill="#FFF" mask="url(#lln6npmrzb)"/>
        </g>
        <path d="M10.471 14.5c-.023.803-.654 1.473-1.477 1.473A1.49 1.49 0 0 1 7.517 14.5a1.489 1.489 0 0 1 1.477-1.474c.823 0 1.454.67 1.477 1.474.01.339.539.34.529 0-.024-.832-.513-1.575-1.303-1.874a2.022 2.022 0 0 0-2.248.6c-1.17 1.418.115 3.573 1.918 3.24.954-.175 1.605-1.017 1.633-1.966.01-.34-.519-.34-.529 0" fill="#FFF"/>
        <path d="M9.388 11.774c.222.222.514.362.823.403.326.043.613.049.855.314.246.269.193.577.263.903.075.35.286.542.48.82a.915.915 0 0 1 .027 1.016c-.19.296-.431.498-.507.864-.058.282-.014.552-.188.807-.234.342-.56.36-.93.41-.682.09-1.104.924-1.843.58-.275-.129-.455-.385-.748-.498-.306-.118-.653-.05-.942-.206-.308-.166-.447-.46-.475-.795-.029-.35-.113-.647-.34-.924-.233-.286-.413-.561-.312-.95.085-.333.39-.536.528-.844.145-.325.066-.696.232-1.007.196-.368.532-.444.91-.48.358-.036.62-.19.892-.413.395-.323.882-.36 1.275 0 .248.227.619-.142.37-.37-.608-.557-1.404-.52-2.015 0-.365.31-.769.204-1.182.375-.338.14-.609.406-.757.74-.156.352-.06.768-.283 1.09-.239.345-.486.586-.518 1.035-.026.38.104.738.342 1.03.144.177.28.322.322.559.037.208.02.41.088.615.103.303.31.568.578.743.377.245.81.133 1.188.33.349.18.548.475.962.554.403.077.821-.027 1.144-.28.118-.092.217-.205.353-.275.198-.103.4-.089.614-.118.376-.052.716-.254.943-.56.24-.322.23-.636.296-1.01.077-.434.509-.689.621-1.123a1.448 1.448 0 0 0-.194-1.16c-.135-.202-.323-.342-.399-.584-.064-.205-.034-.426-.088-.633a1.438 1.438 0 0 0-.771-.927c-.411-.194-.9-.056-1.244-.401-.238-.239-.608.131-.37.37" fill="#FFF"/>
        <g transform="translate(7 18.5)">
            <mask id="936sobgeod" fill="#fff">
                <use xlink:href="#slhd8htgmc"/>
            </mask>
            <path d="M3.473.23v2.03l.396-.205-1.735-1.042a.283.283 0 0 0-.266 0L.13 2.055l.396.205V.23C.527-.077 0-.078 0 .23v2.03c0 .172.227.307.397.205l1.737-1.042h-.266l1.735 1.042c.17.102.397-.033.397-.205V.23c0-.306-.527-.307-.527 0" fill="#FFF" mask="url(#936sobgeod)"/>
        </g>
    </g>
</svg>
