<svg width="40" height="45" viewBox="0 0 40 45" xmlns="http://www.w3.org/2000/svg" xmlns:xlink="http://www.w3.org/1999/xlink">
    <defs>
        <path id="bnq5o72c8a" d="M0 0h10.33v34.739H0z"/>
        <path id="fdbc572hgc" d="M0 0h10.329v34.739H0z"/>
        <path id="vbd5lwkpge" d="M0 0h26.912v26.912H0z"/>
    </defs>
    <g fill="none" fill-rule="evenodd">
        <g transform="translate(0 9.432)">
            <mask id="iaget7e2rb" fill="#fff">
                <use xlink:href="#bnq5o72c8a"/>
            </mask>
            <path d="M9.711 34.739a.618.618 0 0 1-.618-.618v-3.506L4.16 24.774a.729.729 0 0 1-.025-.032l-2.875-3.891a3.146 3.146 0 0 1-.604-1.594c-.176-2.011-.648-7.654-.653-7.71a.618.618 0 0 1 0-.101l.797-9.988C.81.875 1.145.368 1.681.13a1.465 1.465 0 0 1 1.596.256 4.787 4.787 0 0 1 1.558 3.152l.081 6.983c.046.896.59 2.156 1.575 3.645a.618.618 0 0 1-1.03.682c-1.128-1.705-1.726-3.145-1.78-4.28v-.022L3.6 3.58a3.552 3.552 0 0 0-1.152-2.276.237.237 0 0 0-.266-.043.236.236 0 0 0-.147.226c0 .016 0 .033-.002.05l-.795 9.958c.047.567.48 5.748.648 7.655.031.35.158.685.367.967l2.863 3.876 5.067 5.998a.619.619 0 0 1 .146.399v3.732a.618.618 0 0 1-.618.618" fill="#866DE0" mask="url(#iaget7e2rb)"/>
        </g>
        <path d="M19.99 38.849h-.014a.618.618 0 0 1-.604-.631c.03-1.413-.805-3.178-2.233-4.72a7.366 7.366 0 0 0-3.518-2.118.617.617 0 0 1-.28-.163l-4.144-4.19a1.173 1.173 0 0 0-.837-.35 1.195 1.195 0 0 0-.84.345 1.186 1.186 0 0 0-.008 1.664l4.04 4.119a.618.618 0 1 1-.882.865L6.63 29.55a2.426 2.426 0 0 1 .017-3.403 2.4 2.4 0 0 1 1.71-.708h.006a2.4 2.4 0 0 1 1.712.718l4.028 4.073a8.597 8.597 0 0 1 3.943 2.427c.787.85 2.614 3.099 2.561 5.586a.618.618 0 0 1-.617.605" fill="#866DE0"/>
        <g transform="translate(29.671 9.266)">
            <mask id="8ew8pth0pd" fill="#fff">
                <use xlink:href="#fdbc572hgc"/>
            </mask>
            <path d="M.618 34.739A.618.618 0 0 1 0 34.121V30.39c0-.146.052-.288.146-.4l5.067-5.997 2.863-3.875c.21-.284.336-.618.367-.968.167-1.907.6-7.087.648-7.655l-.795-9.959a.656.656 0 0 1-.002-.05.236.236 0 0 0-.147-.225.237.237 0 0 0-.266.043A3.553 3.553 0 0 0 6.73 3.579l-.08 6.967-.002.022c-.051 1.114-.63 2.524-1.719 4.19a.618.618 0 0 1-1.034-.677c.95-1.452 1.474-2.683 1.519-3.56l.08-6.983A4.787 4.787 0 0 1 7.052.387 1.465 1.465 0 0 1 8.649.13c.536.237.872.744.882 1.327l.797 9.988a.618.618 0 0 1 0 .1c-.005.057-.476 5.7-.653 7.71a3.142 3.142 0 0 1-.604 1.595l-2.875 3.891a.73.73 0 0 1-.025.032l-4.934 5.84v3.507a.618.618 0 0 1-.618.618" fill="#866DE0" mask="url(#8ew8pth0pd)"/>
        </g>
        <path d="M20.007 38.866a.618.618 0 0 1-.618-.605c-.046-2.162 1.354-4.46 2.566-5.769a8.6 8.6 0 0 1 3.941-2.427l4.029-4.073a2.401 2.401 0 0 1 1.712-.717h.007c.646 0 1.253.25 1.71.708.933.934.94 2.46.016 3.402l-4.04 4.119a.618.618 0 0 1-.882-.865l4.04-4.119a1.186 1.186 0 0 0-.008-1.664 1.174 1.174 0 0 0-.836-.346h-.004c-.317.001-.614.126-.837.351l-4.144 4.19a.618.618 0 0 1-.28.163 7.365 7.365 0 0 0-3.518 2.118c-1.139 1.23-2.272 3.224-2.237 4.903a.618.618 0 0 1-.604.63h-.013" fill="#866DE0"/>
        <path d="M19.987 44.005a.618.618 0 0 1-.618-.617v-5.026a.618.618 0 1 1 1.236 0v5.026a.618.618 0 0 1-.618.617" fill="#866DE0"/>
        <g transform="translate(6.622)">
            <mask id="55k2l3lywf" fill="#fff">
                <use xlink:href="#vbd5lwkpge"/>
            </mask>
            <path d="M13.456 1.236c-6.738 0-12.22 5.482-12.22 12.22s5.482 12.22 12.22 12.22 12.22-5.482 12.22-12.22-5.482-12.22-12.22-12.22m0 25.676C6.036 26.912 0 20.876 0 13.456S6.036 0 13.456 0s13.456 6.036 13.456 13.456-6.036 13.456-13.456 13.456" fill="#866DE0" mask="url(#55k2l3lywf)"/>
        </g>
        <path d="M19.575 23.697a.618.618 0 0 1-.568-.373 5.42 5.42 0 0 0-.312-.59c-.262-.45-.558-.96-.566-1.742-.009-.88.353-1.428.617-1.828.244-.37.319-.51.275-.755-.066-.364-.466-1.08-2.407-1.773-.882-.315-1.567-.337-2.118-.355-.701-.022-1.364-.043-1.882-.679-.84-1.03-.607-3.048.48-4.152a4.966 4.966 0 0 1 1.244-.893.34.34 0 0 0 .18-.27.321.321 0 0 0-.113-.287c-.653-.388-1.191-.427-1.762-.469-.555-.04-1.129-.082-1.721-.45-.867-.54-1.408-1.58-1.609-3.09a.618.618 0 0 1 1.225-.163c.15 1.127.499 1.868 1.037 2.204.333.207.697.233 1.158.267.628.045 1.409.102 2.322.65.045.027.09.06.137.098.402.331.61.843.555 1.369-.055.53-.368.992-.837 1.237-.383.2-.698.424-.936.665-.625.634-.839 1.968-.402 2.504.146.18.325.204.964.224.603.02 1.43.046 2.494.426 1.927.69 3.006 1.604 3.207 2.718.135.752-.194 1.252-.46 1.654-.224.34-.417.634-.413 1.136.005.455.17.739.4 1.132.12.207.257.443.378.722a.618.618 0 0 1-.567.863zM31.63 18.91a.618.618 0 0 1-.582-.412 3.82 3.82 0 0 0-2.038-2.19c-.547-.24-1.154-.351-1.796-.47-.537-.099-1.093-.201-1.638-.385-1.402-.475-2.707-1.744-2.487-3.254.086-.59.39-1.083.657-1.517.256-.415.477-.773.487-1.133.01-.404-.242-.805-.534-1.27a7.142 7.142 0 0 1-.48-.848c-.552-1.214-.37-2.735.453-3.784a.618.618 0 0 1 .973.763 2.492 2.492 0 0 0-.302 2.51c.104.228.248.457.402.7.349.555.744 1.184.723 1.963-.02.693-.365 1.253-.67 1.748-.225.364-.437.709-.486 1.046-.121.832.765 1.602 1.66 1.905.461.156.95.246 1.466.341.683.126 1.388.256 2.066.552a5.076 5.076 0 0 1 2.709 2.911.618.618 0 0 1-.583.824" fill="#866DE0"/>
    </g>
</svg>
