<svg width="21" height="17" viewBox="0 0 21 17" xmlns="http://www.w3.org/2000/svg" xmlns:xlink="http://www.w3.org/1999/xlink">
    <defs>
        <path id="xg9c4qi6ma" d="M0 0h20.579v17H0z"/>
    </defs>
    <g fill="none" fill-rule="evenodd">
        <path d="M11.639 3.269c-.724 0-1.312.595-1.312 1.328 0 .21.047.411.14.599a1.304 1.304 0 0 0 2.342 0c.093-.188.14-.39.14-.599a1.32 1.32 0 0 0-1.31-1.328M8.34 9.842a.293.293 0 0 1-.283-.351c.238-1.173.783-1.986 1.714-2.56.336-.208.683-.361 1.03-.457l.212-.058-.198-.097a1.882 1.882 0 0 1-.865-.861c-.133-.27-.2-.56-.2-.861 0-1.055.847-1.913 1.888-1.913 1.04 0 1.886.858 1.886 1.913 0 .301-.068.59-.2.86-.188.38-.487.678-.867.863l-.198.097.212.06c.345.095.689.247 1.023.453.926.572 1.47 1.38 1.71 2.542a.294.294 0 0 1-.224.346.29.29 0 0 1-.34-.226c-.267-1.29-.913-1.834-1.446-2.162-.536-.331-1.047-.492-1.562-.492-.514 0-1.025.16-1.562.492-.535.33-1.184.876-1.448 2.179a.29.29 0 0 1-.282.233M3.582 2.4a.424.424 0 0 0-.422.427c0 .067.016.132.045.192a.419.419 0 0 0 .753 0 .424.424 0 0 0-.376-.619m-1.49 2.968a.306.306 0 0 1-.296-.367c.116-.572.395-.987.853-1.269.037-.023.073-.041.11-.06l.134-.07-.075-.083a1.05 1.05 0 0 1-.26-.692c0-.572.459-1.038 1.024-1.038s1.024.466 1.024 1.038a1.046 1.046 0 0 1-.262.693l-.074.084.136.071c.035.018.07.036.104.057.456.28.735.693.852 1.26a.306.306 0 0 1-.296.369.304.304 0 0 1-.295-.244c-.106-.514-.35-.725-.574-.863a1.166 1.166 0 0 0-.617-.196c-.202 0-.404.064-.618.196-.225.139-.47.35-.575.87a.304.304 0 0 1-.295.244" fill="#FFF"/>
        <g>
            <mask id="ar1ccs3cyb" fill="#fff">
                <use xlink:href="#xg9c4qi6ma"/>
            </mask>
            <path d="M1.048.62a.43.43 0 0 0-.429.428v4.609h6.489V.619h-6.06zM.619 11.175h19.34V1.048a.43.43 0 0 0-.428-.429H7.727v5.347a.31.31 0 0 1-.31.31H.62v4.9zm0 1.555a.43.43 0 0 0 .429.429h18.483a.43.43 0 0 0 .429-.429v-.935H.62v.935zM6.053 17c.019-.12.083-.332.301-.555.48-.489 1.425-.758 2.81-.8l.086-.003V13.78H1.048A1.05 1.05 0 0 1 0 12.731V1.048C0 .47.47 0 1.048 0h18.483c.578 0 1.048.47 1.048 1.048V12.73a1.05 1.05 0 0 1-1.048 1.048h-8.202v1.863l.086.003c1.385.042 2.33.311 2.81.8.218.223.282.436.3.555l-.661-.013c-.147-.223-.715-.729-2.844-.729a.31.31 0 0 1-.31-.31V13.78H9.87v2.17a.31.31 0 0 1-.31.31c-2.16 0-2.71.505-2.848.728L6.053 17z" fill="#FFF" mask="url(#ar1ccs3cyb)"/>
        </g>
    </g>
</svg>
