<svg width="40" height="39" viewBox="0 0 40 39" xmlns="http://www.w3.org/2000/svg" xmlns:xlink="http://www.w3.org/1999/xlink">
    <defs>
        <path id="hnz9pgkbga" d="M0 0h38.362v1.132H0z"/>
        <path id="crviyr4eoc" d="M0 0h11.35v13.185H0z"/>
    </defs>
    <g fill="none" fill-rule="evenodd">
        <path d="M25.928 38.58a.566.566 0 0 1-.566-.566v-7.47h-2.194a.566.566 0 1 1 0-1.132h2.76c.313 0 .566.254.566.566v8.036a.566.566 0 0 1-.566.566M15.71 38.58a.566.566 0 0 1-.566-.566v-8.036c0-.312.254-.566.566-.566h1.385a.566.566 0 0 1 0 1.132h-.819v7.47a.566.566 0 0 1-.566.566M12.422 38.58a.566.566 0 0 1-.566-.566v-3.937H2.77v2.315a.566.566 0 0 1-1.132 0V33.51c0-.313.254-.566.566-.566h10.218c.313 0 .566.253.566.566v4.503a.566.566 0 0 1-.566.566" fill="#866DE0"/>
        <g transform="translate(1.639 37.447)">
            <mask id="w7k2cidrub" fill="#fff">
                <use xlink:href="#hnz9pgkbga"/>
            </mask>
            <path d="M37.795 1.132H.566A.566.566 0 1 1 .566 0h37.23a.566.566 0 1 1 0 1.132" fill="#866DE0" mask="url(#w7k2cidrub)"/>
        </g>
        <g transform="translate(28.65 25.395)">
            <mask id="fcpwhnultd" fill="#fff">
                <use xlink:href="#crviyr4eoc"/>
            </mask>
            <path d="M.566 13.185A.566.566 0 0 1 0 12.619V.566C0 .253.253 0 .566 0h10.218c.313 0 .566.253.566.566v9.156a.566.566 0 0 1-1.132 0v-8.59H1.132V12.62a.566.566 0 0 1-.566.566" fill="#866DE0" mask="url(#fcpwhnultd)"/>
        </g>
        <path d="M10.67 22.1a.576.576 0 0 1-.103-.01A4.586 4.586 0 0 1 7.6 20.169a4.587 4.587 0 0 1-.739-3.456l1.167-6.336a.567.567 0 0 1 1.114.205l-1.167 6.336a3.489 3.489 0 0 0 2.796 4.059.566.566 0 0 1-.102 1.122M17.715 14.39c-.298 0-.596-.068-.874-.202l-.82-.395a.566.566 0 0 1 .492-1.02l.82.396c.242.116.52.117.76 0l4.929-2.362c.207-.1.35-.287.392-.514a.711.711 0 0 0-1.005-.768l-4.036 1.933c-.421.202-.904.201-1.325-.002l-.718-.347a.566.566 0 0 1 .492-1.02l.719.347a.39.39 0 0 0 .342.001l4.037-1.933a1.846 1.846 0 0 1 2.454.86c.171.355.224.747.153 1.134a1.849 1.849 0 0 1-1.016 1.33l-4.928 2.362a2.002 2.002 0 0 1-.868.2" fill="#866DE0"/>
        <path d="M20.52 30.502c-.368 0-.731-.1-1.056-.296a2.04 2.04 0 0 1-.934-1.267l-1.316-5.32-6.672-1.534a.566.566 0 0 1 .254-1.103l6.686 1.538c.395.08.724.395.825.801l1.322 5.347c.06.239.208.441.42.568a.924.924 0 0 0 1.372-1.011l-1.61-6.503a1.171 1.171 0 0 0-.756-.828l-6-2.494a.566.566 0 0 1-.334-.649l1.831-8.057a.9.9 0 0 0-.65-1.074l-3.022-.8a.902.902 0 0 0-.41.029l-6.223 1.92a2.11 2.11 0 0 0-1.335 1.22l-1.726 4.206a.706.706 0 0 0 .387.927.706.706 0 0 0 .927-.388l1.595-3.887c.162-.395.488-.695.895-.824l1.23-.389a.566.566 0 1 1 .34 1.08l-1.229.389a.303.303 0 0 0-.19.174l-1.594 3.887a1.83 1.83 0 0 1-.994 1 1.83 1.83 0 0 1-1.41.005 1.83 1.83 0 0 1-1-.993 1.83 1.83 0 0 1-.004-1.41l1.725-4.206a3.24 3.24 0 0 1 2.05-1.872l6.223-1.92a2.045 2.045 0 0 1 1.009-.048l3.046.805a2.028 2.028 0 0 1 1.464 2.42l-1.726 7.592 5.55 2.307a2.302 2.302 0 0 1 1.43 1.607l1.61 6.502a2.057 2.057 0 0 1-2 2.549z" fill="#866DE0"/>
        <path d="M4.932 30.43a2.06 2.06 0 0 1-1.943-2.73 2.04 2.04 0 0 1 1.045-1.175l4.728-2.292.177-1.23a.566.566 0 0 1 1.12.161l-.2 1.395a.82.82 0 0 1-.458.623l-4.874 2.361a.915.915 0 0 0-.469.528.917.917 0 0 0 .042.704.915.915 0 0 0 .527.47.916.916 0 0 0 .705-.041l4.878-2.364a2.667 2.667 0 0 0 1.475-2.018l.138-.96a.565.565 0 1 1 1.12.162l-.138.96a3.797 3.797 0 0 1-2.1 2.875l-4.88 2.364a2.046 2.046 0 0 1-.893.206zM13.775 1.131a2.186 2.186 0 0 0-2.12 2.725 2.186 2.186 0 0 0 2.657 1.575c.565-.144 1.04-.5 1.338-1.002a2.17 2.17 0 0 0 .237-1.654 2.169 2.169 0 0 0-1.002-1.337 2.17 2.17 0 0 0-1.11-.307m-.003 5.5a3.322 3.322 0 0 1-3.212-2.494 3.293 3.293 0 0 1 .36-2.512A3.293 3.293 0 0 1 12.95.104a3.32 3.32 0 0 1 4.034 2.39c.22.859.091 1.75-.36 2.513a3.293 3.293 0 0 1-2.031 1.52c-.275.071-.55.105-.82.105M36.987 26.385a.566.566 0 0 1-.566-.566V5.809a.566.566 0 0 1 1.132 0v20.01a.566.566 0 0 1-.566.566" fill="#866DE0"/>
        <path d="M36.987 15.235H27.5a.566.566 0 0 1-.497-.836l1.876-3.456-1.876-3.456a.566.566 0 0 1 .497-.836h7.512a.566.566 0 1 1 0 1.132h-6.56l1.569 2.89a.566.566 0 0 1 0 .54l-1.57 2.89h8.536a.566.566 0 1 1 0 1.132" fill="#866DE0"/>
    </g>
</svg>
