<svg width="40" height="40" viewBox="0 0 40 40" xmlns="http://www.w3.org/2000/svg" xmlns:xlink="http://www.w3.org/1999/xlink">
    <defs>
        <path id="j8gkxgbswa" d="M0 0h40v39.152H0z"/>
    </defs>
    <g fill="none" fill-rule="evenodd">
        <g>
            <mask id="haw0ewaoab" fill="#fff">
                <use xlink:href="#j8gkxgbswa"/>
            </mask>
            <path d="M29.297 0H10.703C4.793 0 0 4.7 0 10.497v18.158c0 5.798 4.792 10.497 10.703 10.497h18.594c5.911 0 10.703-4.7 10.703-10.497V10.497C40 4.7 35.208 0 29.297 0" fill="#866DE0" mask="url(#haw0ewaoab)"/>
        </g>
        <path d="m16.71 23.525 8.296-4.219-8.296-4.245v8.464zM9.394 28.22c-1.009-.324-1.687-.972-2.051-1.953-.888-2.394-1.15-12.41.558-14.383a3.332 3.332 0 0 1 2.232-1.163c4.606-.486 18.842-.416 20.483.163.96.339 1.642.957 2.014 1.9.97 2.475 1.005 11.48-.129 13.864-.307.647-.808 1.103-1.444 1.43-1.717.884-19.403.873-21.663.142z" fill="#FFF"/>
    </g>
</svg>
